<?xml version="1.0" encoding="UTF-8"?>
<svg width="480px" height="468px" viewBox="0 0 480 468" version="1.1" xmlns="http://www.w3.org/2000/svg" xmlns:xlink="http://www.w3.org/1999/xlink">
    <!-- Generator: Sketch 53.2 (72643) - https://sketchapp.com -->
    <title>House Unsafe</title>
    <desc>Created with Sketch.</desc>
    <g id="House-Unsafe" stroke="none" stroke-width="1" fill="none" fill-rule="evenodd">
        <path d="M131.121987,152.936671 L159.649007,204.003027 L148.869561,272.92287 L219.434069,290.642697 L178.726769,253.873337 L221.142518,188.781652 L183.409457,100.392891 L249.3175,34.1617686 L453.3175,239.161769 L413.695229,239.161769 C413.716984,239.492292 413.728034,239.82574 413.728034,240.161769 C413.728034,240.354453 413.724321,240.54712 413.716898,240.739661 L408.817984,367.803352 C408.557393,374.562347 403.805407,380.310781 397.216075,381.838076 L297.610697,404.9249 C300.237179,402.871612 301.864446,399.673331 301.838408,396.173705 L301.398734,337.079928 C301.353772,331.036899 296.442234,326.161769 290.399038,326.161769 L211.3175,326.161769 C205.242368,326.161769 200.3175,331.086636 200.3175,337.161769 L200.3175,416.082411 C200.3175,416.979462 200.42723,417.873146 200.644247,418.743552 C201.472684,422.066232 203.731,424.655742 206.599716,426.019689 L103.661088,449.879103 C95.5907631,451.749667 87.532081,446.723767 85.6615177,438.653442 C85.3822848,437.448725 85.2531033,436.2141 85.2769141,434.977674 L89.0341953,239.872956 C89.0387881,239.634464 89.0489287,239.397361 89.0644925,239.161769 L45.3174999,239.161769 L131.121987,152.936671 Z" id="Triangle-2" stroke="#FFFFFF" stroke-width="19" stroke-linecap="round" stroke-linejoin="round" transform="translate(249.317500, 242.215797) rotate(14.000000) translate(-249.317500, -242.215797) "></path>
        <path d="M0,413.660597 L467.5,413.660597" id="Line" stroke="#FFFFFF" stroke-width="19" stroke-linecap="square"></path>
    </g>
</svg>